<svg xmlns="http://www.w3.org/2000/svg" width="40" height="40" viewBox="0 0 40 40" fill="none">
<path d="M20 17.0909C18.3927 17.0909 17.0909 18.3927 17.0909 20C17.0909 21.6073 18.3927 22.9091 20 22.9091C21.6073 22.9091 22.9091 21.6073 22.9091 20C22.9091 18.3927 21.6073 17.0909 20 17.0909ZM26.5018 19.2727C26.1673 16.24 23.76 13.8327 20.7273 13.4982V12H19.2727V13.4982C16.24 13.8327 13.8327 16.24 13.4982 19.2727H12V20.7273H13.4982C13.8327 23.76 16.24 26.1673 19.2727 26.5018V28H20.7273V26.5018C23.76 26.1673 26.1673 23.76 26.5018 20.7273H28V19.2727H26.5018ZM20 25.0909C17.1855 25.0909 14.9091 22.8145 14.9091 20C14.9091 17.1855 17.1855 14.9091 20 14.9091C22.8145 14.9091 25.0909 17.1855 25.0909 20C25.0909 22.8145 22.8145 25.0909 20 25.0909Z" fill="#333333"/>
</svg>

