<svg width="48" height="48" viewBox="0 0 48 48" fill="none" xmlns="http://www.w3.org/2000/svg">
<g filter="url(#filter0_d_63_6291)">
<circle cx="24" cy="24" r="20" fill="#FFFEFC"/>
</g>
<path d="M24 21.0909C22.3927 21.0909 21.0909 22.3927 21.0909 24C21.0909 25.6073 22.3927 26.9091 24 26.9091C25.6073 26.9091 26.9091 25.6073 26.9091 24C26.9091 22.3927 25.6073 21.0909 24 21.0909ZM30.5018 23.2727C30.1673 20.24 27.76 17.8327 24.7273 17.4982V16H23.2727V17.4982C20.24 17.8327 17.8327 20.24 17.4982 23.2727H16V24.7273H17.4982C17.8327 27.76 20.24 30.1673 23.2727 30.5018V32H24.7273V30.5018C27.76 30.1673 30.1673 27.76 30.5018 24.7273H32V23.2727H30.5018ZM24 29.0909C21.1855 29.0909 18.9091 26.8145 18.9091 24C18.9091 21.1855 21.1855 18.9091 24 18.9091C26.8145 18.9091 29.0909 21.1855 29.0909 24C29.0909 26.8145 26.8145 29.0909 24 29.0909Z" fill="#333333"/>
<defs>
<filter id="filter0_d_63_6291" x="0" y="0" width="48" height="48" filterUnits="userSpaceOnUse" color-interpolation-filters="sRGB">
<feFlood flood-opacity="0" result="BackgroundImageFix"/>
<feColorMatrix in="SourceAlpha" type="matrix" values="0 0 0 0 0 0 0 0 0 0 0 0 0 0 0 0 0 0 127 0" result="hardAlpha"/>
<feOffset/>
<feGaussianBlur stdDeviation="2"/>
<feComposite in2="hardAlpha" operator="out"/>
<feColorMatrix type="matrix" values="0 0 0 0 0 0 0 0 0 0 0 0 0 0 0 0 0 0 0.25 0"/>
<feBlend mode="normal" in2="BackgroundImageFix" result="effect1_dropShadow_63_6291"/>
<feBlend mode="normal" in="SourceGraphic" in2="effect1_dropShadow_63_6291" result="shape"/>
</filter>
</defs>
</svg>
