<svg xmlns="http://www.w3.org/2000/svg" width="24" height="24" viewBox="0 0 24 24" fill="none">
<path fill-rule="evenodd" clip-rule="evenodd" d="M4 5.75C4 5.33579 4.33579 5 4.75 5H19.75C20.1642 5 20.5 5.33579 20.5 5.75C20.5 6.16421 20.1642 6.5 19.75 6.5L4.75 6.5C4.33579 6.5 4 6.16421 4 5.75ZM4 12.25C4 11.8358 4.33579 11.5 4.75 11.5L19.75 11.5C20.1642 11.5 20.5 11.8358 20.5 12.25C20.5 12.6642 20.1642 13 19.75 13L4.75 13C4.33579 13 4 12.6642 4 12.25ZM4.75 18C4.33579 18 4 18.3358 4 18.75C4 19.1642 4.33579 19.5 4.75 19.5L19.75 19.5C20.1642 19.5 20.5 19.1642 20.5 18.75C20.5 18.3358 20.1642 18 19.75 18L4.75 18Z" fill="#333333"/>
</svg>