<svg xmlns="http://www.w3.org/2000/svg" width="24" height="24" viewBox="0 0 24 24" fill="none">
<path d="M18.1579 7.73684V10.5695C18.1579 10.5695 16.2726 10.5789 16.2632 10.5695V7.73684H13.4211C13.4211 7.73684 13.4305 5.85158 13.4211 5.84211H16.2632V3H18.1579V5.84211H21V7.73684H18.1579ZM15.3158 11.5263V8.68421H12.4737V5.84211H4.89474C3.85263 5.84211 3 6.69474 3 7.73684V19.1053C3 20.1474 3.85263 21 4.89474 21H16.2632C17.3053 21 18.1579 20.1474 18.1579 19.1053V11.5263H15.3158ZM4.89474 19.1053L7.73684 15.3158L9.63158 18.1579L12.4737 14.3684L16.2632 19.1053H4.89474Z" fill="#A1A1A1"/>
</svg>