<svg xmlns="http://www.w3.org/2000/svg" width="48" height="48" viewBox="0 0 48 48" fill="none">
  <g filter="url(#filter0_d_26_1947)">
    <circle cx="23" cy="22" r="20" fill="#333333"/>
  </g>
  <path d="M23.3201 12.4004C19.6049 12.4004 16.6001 15.4052 16.6001 19.1204C16.6001 24.1604 23.3201 31.6004 23.3201 31.6004C23.3201 31.6004 30.0401 24.1604 30.0401 19.1204C30.0401 15.4052 27.0353 12.4004 23.3201 12.4004ZM23.3201 21.5204C21.9953 21.5204 20.9201 20.4452 20.9201 19.1204C20.9201 17.7956 21.9953 16.7204 23.3201 16.7204C24.6449 16.7204 25.7201 17.7956 25.7201 19.1204C25.7201 20.4452 24.6449 21.5204 23.3201 21.5204Z" fill="white"/>
  <defs>
    <filter id="filter0_d_26_1947" x="0" y="0" width="48" height="48" filterUnits="userSpaceOnUse" color-interpolation-filters="sRGB">
      <feFlood flood-opacity="0" result="BackgroundImageFix"/>
      <feColorMatrix in="SourceAlpha" type="matrix" values="0 0 0 0 0 0 0 0 0 0 0 0 0 0 0 0 0 0 127 0" result="hardAlpha"/>
      <feOffset dx="1" dy="2"/>
      <feGaussianBlur stdDeviation="2"/>
      <feComposite in2="hardAlpha" operator="out"/>
      <feColorMatrix type="matrix" values="0 0 0 0 0 0 0 0 0 0 0 0 0 0 0 0 0 0 0.25 0"/>
      <feBlend mode="normal" in2="BackgroundImageFix" result="effect1_dropShadow_26_1947"/>
      <feBlend mode="normal" in="SourceGraphic" in2="effect1_dropShadow_26_1947" result="shape"/>
    </filter>
  </defs>
</svg>