<svg width="48" height="48" viewBox="0 0 48 48" fill="none" xmlns="http://www.w3.org/2000/svg">
<g filter="url(#filter0_d_26_1946)">
<circle cx="23" cy="22" r="20" fill="#333333"/>
</g>
<path d="M23.32 12.3999C19.6048 12.3999 16.6 15.4047 16.6 19.1199C16.6 24.1599 23.32 31.5999 23.32 31.5999C23.32 31.5999 30.04 24.1599 30.04 19.1199C30.04 15.4047 27.0352 12.3999 23.32 12.3999ZM23.32 21.5199C21.9952 21.5199 20.92 20.4447 20.92 19.1199C20.92 17.7951 21.9952 16.7199 23.32 16.7199C24.6448 16.7199 25.72 17.7951 25.72 19.1199C25.72 20.4447 24.6448 21.5199 23.32 21.5199Z" fill="white"/>
<defs>
<filter id="filter0_d_26_1946" x="0" y="0" width="48" height="48" filterUnits="userSpaceOnUse" color-interpolation-filters="sRGB">
<feFlood flood-opacity="0" result="BackgroundImageFix"/>
<feColorMatrix in="SourceAlpha" type="matrix" values="0 0 0 0 0 0 0 0 0 0 0 0 0 0 0 0 0 0 127 0" result="hardAlpha"/>
<feOffset dx="1" dy="2"/>
<feGaussianBlur stdDeviation="2"/>
<feComposite in2="hardAlpha" operator="out"/>
<feColorMatrix type="matrix" values="0 0 0 0 0 0 0 0 0 0 0 0 0 0 0 0 0 0 0.25 0"/>
<feBlend mode="normal" in2="BackgroundImageFix" result="effect1_dropShadow_26_1946"/>
<feBlend mode="normal" in="SourceGraphic" in2="effect1_dropShadow_26_1946" result="shape"/>
</filter>
</defs>
</svg>
