<svg width="24" height="24" viewBox="0 0 24 24" fill="none" xmlns="http://www.w3.org/2000/svg">
<path fill-rule="evenodd" clip-rule="evenodd" d="M19.8004 7.95109C19.8131 8.09873 19.8258 8.24719 19.8312 8.39329C19.842 8.58418 19.842 8.77508 19.8312 8.96336C19.8254 9.10415 19.8127 9.24358 19.8 9.38264C19.795 9.4373 19.7901 9.4919 19.7855 9.5465L19.7694 9.71125C19.7593 9.77092 19.7502 9.8311 19.7412 9.8914C19.7213 10.024 19.7013 10.1571 19.6699 10.2865C19.5704 10.6893 19.4628 11.0867 19.3471 11.4842C19.1455 12.1615 18.8711 12.8126 18.5673 13.4533C18.3844 13.8403 18.1934 14.2274 17.9917 14.6091C17.8089 14.9569 17.6152 15.2995 17.4082 15.6368C17.072 16.1938 16.7305 16.7456 16.3782 17.2948C16.1768 17.6066 15.9639 17.9073 15.7501 18.2093C15.7327 18.2339 15.7152 18.2586 15.6978 18.2832C15.6749 18.3159 15.6521 18.3479 15.6292 18.3799C15.6063 18.412 15.5835 18.444 15.5606 18.4767H8.26991C8.23224 18.4244 8.19457 18.3727 8.1569 18.3211C8.11927 18.2694 8.08164 18.2178 8.044 18.1655C7.94878 18.0305 7.85719 17.8927 7.76553 17.7549C7.69929 17.6553 7.63301 17.5556 7.56531 17.4569C7.53022 17.4046 7.49493 17.3526 7.45966 17.3005C7.36787 17.1651 7.27623 17.0299 7.18881 16.892C7.09468 16.7482 7.00324 16.5992 6.91181 16.4501C6.8438 16.3369 6.77483 16.224 6.70579 16.1109C6.57551 15.8976 6.44496 15.6839 6.32016 15.4669C6.20087 15.2634 6.08909 15.0563 5.97714 14.8489C5.92504 14.7524 5.8729 14.6558 5.81995 14.5595C5.7944 14.5098 5.76818 14.4601 5.74196 14.4104C5.71574 14.3607 5.68952 14.311 5.66397 14.2613C5.61289 14.162 5.56181 14.0653 5.51074 13.9686L5.51068 13.9685C5.48906 13.9224 5.46692 13.8763 5.44474 13.8301C5.39521 13.727 5.3455 13.6235 5.30091 13.5187C5.28836 13.4907 5.27578 13.4627 5.2632 13.4346C5.11949 13.1145 4.97479 12.7921 4.84373 12.4675C4.72271 12.172 4.61783 11.8686 4.51564 11.5679C4.33276 11.0344 4.1983 10.4879 4.10148 9.93352C4.09611 9.90737 4.09342 9.88122 4.09073 9.85507C4.08124 9.76924 4.06973 9.68341 4.05823 9.59757C4.03715 9.44021 4.01606 9.28285 4.00736 9.12549C3.99543 8.86098 4.00043 8.59852 4.00547 8.33448C4.00611 8.30094 4.00675 8.26737 4.00736 8.23377C4.00736 8.15434 4.01674 8.07491 4.02621 7.99472C4.03108 7.95348 4.03598 7.91203 4.03963 7.87029C4.04671 7.80145 4.05453 7.73335 4.06232 7.66558C4.06932 7.60463 4.07629 7.54395 4.08266 7.48327C4.09342 7.4362 4.10148 7.38913 4.10955 7.34206L4.10955 7.34206C4.12111 7.28835 4.13145 7.23464 4.14173 7.18121C4.15297 7.12279 4.16414 7.06471 4.17678 7.00734C4.21981 6.84521 4.26284 6.68308 4.30856 6.52356C4.41882 6.14439 4.55867 5.77567 4.73885 5.42265C4.88407 5.14023 5.03736 4.86042 5.20679 4.58846C5.40311 4.26943 5.62901 3.96871 5.88449 3.69152C6.09157 3.46663 6.30402 3.24958 6.52455 3.043C6.79079 2.79457 7.07854 2.56968 7.38781 2.37094C7.62447 2.21927 7.86651 2.07545 8.10855 1.93162C8.13067 1.91838 8.15388 1.90828 8.17747 1.89801C8.19116 1.89206 8.20499 1.88604 8.21881 1.87932L8.51732 1.73027C8.84273 1.57598 9.17889 1.45308 9.52043 1.34586C10.0126 1.19419 10.5182 1.09744 11.0264 1.03991C11.0614 1.03206 11.0937 1.03206 11.1259 1.03206C11.1546 1.02985 11.1832 1.02757 11.2118 1.02528C11.3526 1.01406 11.493 1.00285 11.6315 1.00068C11.8978 0.998065 12.164 1.0033 12.4303 1.01114C12.5415 1.01457 12.6538 1.02476 12.7673 1.03506C12.8268 1.04045 12.8865 1.04587 12.9466 1.05037C13.0058 1.06083 13.0663 1.06998 13.1268 1.07913C13.1873 1.08828 13.2478 1.09744 13.307 1.1079C13.4226 1.12882 13.5356 1.14974 13.6458 1.17327C13.7722 1.19942 13.8932 1.22557 14.0169 1.25957C14.0295 1.26331 14.0421 1.26706 14.0547 1.27081C14.2441 1.32725 14.4354 1.38425 14.622 1.45046C14.7823 1.50509 14.9393 1.56911 15.0955 1.63283C15.1412 1.65147 15.1869 1.67008 15.2325 1.68843C15.254 1.69889 15.2729 1.70935 15.2917 1.71981C15.3595 1.75435 15.4283 1.78795 15.4975 1.82174C15.5435 1.84422 15.5897 1.86679 15.6359 1.88978C15.7125 1.93396 15.7897 1.97643 15.8668 2.01878C16.0222 2.10427 16.1769 2.18934 16.3244 2.28726C16.5651 2.44655 16.7944 2.62365 17.0228 2.80007C17.0419 2.81481 17.061 2.82954 17.0801 2.84426C17.1607 2.90876 17.2366 2.98023 17.3125 3.05171C17.3505 3.08745 17.3884 3.12319 17.427 3.15806C17.4593 3.18813 17.4909 3.21885 17.5225 3.24958C17.5541 3.28031 17.5857 3.31103 17.6179 3.34111C17.6907 3.42386 17.7645 3.50564 17.8383 3.58736C17.9743 3.73806 18.1101 3.88855 18.2392 4.04454C18.3211 4.14115 18.3917 4.24655 18.462 4.35148C18.5002 4.40844 18.5383 4.46527 18.578 4.52047C18.7689 4.7872 18.9303 5.07224 19.0728 5.36773C19.1446 5.51591 19.2091 5.66875 19.2736 5.82158C19.3059 5.89799 19.3382 5.97441 19.3714 6.05025C19.3767 6.06419 19.3773 6.07814 19.3779 6.09208C19.3782 6.09906 19.3785 6.10603 19.3794 6.11301C19.3857 6.12957 19.3917 6.14642 19.3976 6.16327C19.4096 6.19698 19.4216 6.23068 19.4359 6.26206C19.4467 6.28953 19.4574 6.31635 19.4682 6.34316C19.4789 6.36995 19.4897 6.39675 19.5004 6.42419C19.6295 6.83213 19.721 7.2453 19.7828 7.66632C19.7846 7.68201 19.784 7.6977 19.7834 7.71339C19.7831 7.72123 19.7828 7.72908 19.7828 7.73692C19.7881 7.80787 19.7942 7.87939 19.8004 7.95109ZM11.4137 22.462C11.2668 22.2937 11.1194 22.1248 10.9775 21.9523L10.9749 21.9549C10.6414 21.5548 10.3106 21.1521 9.9825 20.7468C9.72701 20.4304 9.47691 20.1088 9.22949 19.7871H14.5973L14.5973 19.7871C14.4279 20.0094 14.2585 20.2317 14.0837 20.4487C13.7421 20.875 13.3979 21.3038 13.0456 21.7274C12.8645 21.9454 12.6779 22.1591 12.4915 22.3726C12.3872 22.4921 12.2829 22.6115 12.1797 22.7316C12.1533 22.7611 12.1262 22.7903 12.0991 22.8195C12.0542 22.8679 12.0091 22.9164 11.9672 22.967C11.9269 23.0193 11.8946 23.0088 11.8543 22.9643C11.7705 22.8655 11.6839 22.7681 11.5975 22.671C11.5674 22.6371 11.5373 22.6033 11.5073 22.5695C11.4762 22.5337 11.4449 22.4979 11.4137 22.462Z" fill="#333333"/>
</svg>
