<svg width="24" height="24" viewBox="0 0 24 24" fill="none" xmlns="http://www.w3.org/2000/svg">
<path d="M19.344 7.73691C19.3607 7.95585 19.383 8.1748 19.3928 8.39432C19.4008 8.5846 19.4014 8.77546 19.3928 8.96518C19.3847 9.15891 19.3618 9.35206 19.3458 9.54578C19.3412 9.60081 19.336 9.6564 19.3309 9.71143C19.2999 9.90343 19.2804 10.0983 19.2346 10.2869C19.1377 10.6875 19.0345 11.087 18.9199 11.4825C18.7239 12.1599 18.4574 12.8116 18.1628 13.4513C17.9839 13.8399 17.7988 14.2262 17.6028 14.6073C17.424 14.9552 17.2348 15.2991 17.0365 15.6361C16.7087 16.1927 16.3745 16.7463 16.0329 17.2943C15.8237 17.6301 15.5979 17.9563 15.3732 18.2818C15.0861 18.6973 14.7955 19.1106 14.4997 19.5192C14.2739 19.831 14.0412 20.1377 13.8051 20.442C13.4721 20.8713 13.1373 21.2995 12.7957 21.7219C12.5212 22.0612 12.2358 22.3919 11.9544 22.7255C11.8867 22.8057 11.8145 22.8819 11.748 22.9628C11.7062 23.0138 11.6752 23.004 11.6374 22.9587C11.5256 22.8264 11.4104 22.6968 11.2987 22.5644C11.1261 22.3604 10.9525 22.1569 10.784 21.9489C10.4596 21.5482 10.1357 21.147 9.81763 20.7412C9.54481 20.3927 9.27772 20.0391 9.01292 19.6843C8.83639 19.4482 8.66731 19.2069 8.49651 18.9662C8.30737 18.6996 8.11708 18.4331 7.93253 18.1632C7.77376 17.9299 7.62245 17.6915 7.4677 17.4553C7.34504 17.2679 7.21952 17.0816 7.09973 16.8925C7.00746 16.7469 6.92034 16.5973 6.83264 16.4489C6.63949 16.1216 6.44232 15.796 6.25548 15.4648C6.08754 15.1667 5.93164 14.8618 5.77059 14.5597C5.71958 14.46 5.66914 14.3597 5.61813 14.26C5.56826 14.1625 5.51897 14.0651 5.46911 13.9677C5.40033 13.8181 5.32926 13.6696 5.26449 13.5189C5.11375 13.1693 4.95957 12.8214 4.8203 12.4672C4.70395 12.1714 4.6025 11.8688 4.50105 11.5673C4.32223 11.0337 4.19269 10.4875 4.0987 9.93266C4.09468 9.90744 4.09239 9.88165 4.08895 9.85643C4.06087 9.61284 4.0196 9.36983 4.00814 9.12566C3.99381 8.82934 4.00183 8.5313 4.00642 8.23441C4.00814 8.1129 4.02648 7.99196 4.03909 7.87103C4.05227 7.74149 4.06774 7.61253 4.08207 7.48357C4.09067 7.43715 4.0987 7.39072 4.10729 7.3443C4.12907 7.23196 4.15028 7.12019 4.17206 7.00786C4.21505 6.8468 4.25574 6.68574 4.30102 6.52526C4.40877 6.14583 4.54289 5.77557 4.71942 5.42308C4.86099 5.14052 5.01001 4.86139 5.17279 4.59029C5.36422 4.27104 5.58546 3.97014 5.83306 3.69273C6.03195 3.46977 6.23943 3.25255 6.45493 3.04507C6.714 2.79632 6.9937 2.56992 7.29461 2.37218C7.52444 2.22087 7.75943 2.07758 7.99328 1.932C8.0271 1.91079 8.06607 1.89704 8.10275 1.88041C8.19962 1.83112 8.29648 1.78183 8.39334 1.73254C8.708 1.57836 9.0347 1.45399 9.36885 1.34738C9.84629 1.19492 10.3358 1.09749 10.8333 1.04017C10.8648 1.03673 10.8969 1.03558 10.929 1.03329C11.0923 1.0224 11.2563 1.00349 11.4202 1.00177C11.6781 0.998903 11.9366 1.00406 12.1945 1.01323C12.3624 1.01896 12.5298 1.03902 12.6977 1.05221C12.8152 1.07112 12.9327 1.08889 13.0497 1.10952C13.1603 1.12958 13.2703 1.15079 13.3798 1.17486C13.5002 1.2018 13.6205 1.22759 13.7386 1.26313C13.9363 1.32159 14.1341 1.3812 14.3278 1.4517C14.5278 1.52449 14.7238 1.61046 14.921 1.69127C14.9405 1.6993 14.9588 1.71076 14.9777 1.72108C15.0895 1.77782 15.2007 1.83456 15.3125 1.8913C15.5366 2.02313 15.7693 2.14292 15.9831 2.28965C16.2358 2.46274 16.476 2.65589 16.7155 2.84733C16.8353 2.94304 16.9419 3.05424 17.0543 3.15912C17.1156 3.22045 17.1775 3.28235 17.2388 3.34368C17.4417 3.57753 17.6504 3.80679 17.8452 4.04751C17.9656 4.19653 18.063 4.36389 18.1731 4.52151C18.3599 4.7886 18.5164 5.07346 18.6545 5.36749C18.7594 5.59159 18.8494 5.82372 18.9445 6.05241C18.9526 6.07132 18.9503 6.09425 18.9531 6.11488C18.9709 6.16417 18.9881 6.21404 19.0064 6.26333C19.0271 6.3172 19.0489 6.37108 19.0701 6.42496C19.1939 6.8319 19.2844 7.24572 19.3429 7.66698C19.3463 7.68991 19.3435 7.71398 19.344 7.73748V7.73691ZM14.4246 9.13025C14.4355 9.04829 14.4556 8.9669 14.455 8.88494C14.455 8.70898 14.4436 8.53302 14.4373 8.35706C14.4206 8.09742 14.341 7.85326 14.2418 7.61655C14.1226 7.33226 13.9564 7.07663 13.7449 6.85196C13.6755 6.78089 13.6068 6.70982 13.5374 6.63874C13.4818 6.59232 13.4268 6.54532 13.37 6.50061C13.1884 6.35675 12.9866 6.24671 12.7745 6.15672C12.6009 6.08278 12.4232 6.01859 12.2358 5.98707C11.9349 5.91772 11.6311 5.92116 11.3262 5.95554C11.2964 5.95898 11.2671 5.97217 11.2379 5.98134C10.9129 6.02318 10.6132 6.1401 10.3312 6.30058C9.99073 6.49374 9.70243 6.74822 9.47087 7.06689C9.23187 7.39588 9.06967 7.75697 8.99172 8.15646C8.97681 8.23154 8.96478 8.30777 8.9516 8.38343C8.94529 8.54047 8.93669 8.69752 8.93497 8.85456C8.9344 8.90557 8.95045 8.95716 8.95847 9.00874C8.98255 9.14515 8.9963 9.28443 9.03241 9.4174C9.11838 9.73034 9.25365 10.0209 9.43992 10.2892C9.703 10.6686 10.0452 10.9557 10.4538 11.1644C10.588 11.2326 10.7324 11.2853 10.8768 11.3289C11.0241 11.373 11.1772 11.3971 11.3273 11.4297C11.3382 11.436 11.3485 11.4469 11.3594 11.4469C11.548 11.4515 11.7371 11.4567 11.9257 11.4578C11.971 11.4578 12.0163 11.4441 12.0615 11.4366C12.6307 11.3627 13.1265 11.1323 13.55 10.7454C13.6154 10.6801 13.6807 10.6147 13.7455 10.5494C13.9621 10.3115 14.1289 10.0427 14.2527 9.74639C14.3352 9.54865 14.3977 9.34461 14.4241 9.13082L14.4246 9.13025Z" fill="white"/>
<path d="M19.3435 7.73709C19.3435 7.71359 19.3464 7.69009 19.3435 7.66888C19.2862 7.24761 19.1945 6.83208 19.0718 6.42399C19.0483 6.37183 19.0271 6.31968 19.0065 6.26465C18.9882 6.21479 18.9727 6.1655 18.9543 6.11563C18.9515 6.09443 18.9515 6.07093 18.9463 6.05259C18.8495 5.82275 18.7606 5.59234 18.6563 5.36767C18.5176 5.07192 18.3611 4.78993 18.1754 4.52054C18.0654 4.3635 17.9662 4.19614 17.8459 4.04712C17.6521 3.80639 17.4429 3.57656 17.2395 3.34386C17.1793 3.28138 17.1168 3.2212 17.0566 3.15815C16.9443 3.05613 16.8371 2.94379 16.7168 2.84693C16.4789 2.65607 16.2382 2.46234 15.9848 2.28982C15.7705 2.14367 15.5378 2.02331 15.3131 1.88976C15.203 1.83474 15.0907 1.77742 14.9812 1.71954C14.9606 1.70922 14.9423 1.69833 14.9239 1.69088C14.725 1.61006 14.529 1.52352 14.3301 1.45015C14.1364 1.37966 13.9381 1.32177 13.7392 1.26216C13.6217 1.22834 13.5014 1.20198 13.381 1.17561C13.2709 1.14925 13.1615 1.12861 13.0514 1.11027C12.9339 1.08677 12.8159 1.0713 12.6984 1.05296C12.531 1.03977 12.3636 1.01914 12.1963 1.01112C11.9372 1.00309 11.6787 0.997934 11.4197 1.0008C11.2575 1.00367 11.0952 1.02143 10.9308 1.03232C10.8992 1.03519 10.8654 1.03519 10.8339 1.04035C10.337 1.09766 9.84806 1.19739 9.36948 1.3487C9.03762 1.45302 8.70806 1.57854 8.39397 1.73329C8.29711 1.78316 8.20024 1.83245 8.10395 1.87945C8.06727 1.89779 8.0283 1.91097 7.99391 1.9316C7.75834 2.07776 7.52335 2.22162 7.29581 2.37064C6.9949 2.56952 6.7152 2.79707 6.45671 3.04524C6.23948 3.25158 6.03315 3.4688 5.83426 3.69119C5.58608 3.9686 5.36599 4.27179 5.17284 4.59047C5.01064 4.85985 4.86162 5.13955 4.72062 5.42212C4.54294 5.77518 4.4094 6.14658 4.30222 6.52544C4.25751 6.68478 4.21567 6.84698 4.17383 7.00918C4.15033 7.11923 4.12913 7.23156 4.10849 7.3439C4.09817 7.3909 4.09015 7.4379 4.08213 7.48261C4.06665 7.61329 4.05347 7.74167 4.04029 7.87235C4.0271 7.99271 4.00876 8.11308 4.00647 8.23573C4.0036 8.53148 3.99615 8.82952 4.00934 9.12756C4.01965 9.37058 4.06149 9.61417 4.09015 9.85719C4.09302 9.88069 4.09531 9.90934 4.09817 9.93284C4.19217 10.4871 4.32285 11.0339 4.5034 11.5669C4.60255 11.8701 4.70457 12.1733 4.82264 12.4691C4.96135 12.8221 5.11552 13.17 5.26454 13.5174C5.32988 13.6715 5.40038 13.8183 5.47088 13.9673C5.51788 14.0664 5.57004 14.1633 5.6199 14.2602C5.66977 14.3622 5.71906 14.4613 5.77179 14.5611C5.93399 14.862 6.08817 15.1675 6.2584 15.4655C6.4441 15.7974 6.64012 16.1218 6.83384 16.4485C6.92268 16.5975 7.00923 16.7494 7.10036 16.8932C7.22072 17.0841 7.34624 17.2669 7.4689 17.4555C7.62308 17.6934 7.77496 17.9312 7.9343 18.1639C8.0048 18.2682 8.08103 18.3703 8.15153 18.4751H15.2403C15.285 18.4127 15.332 18.3468 15.3761 18.2843C15.6008 17.9576 15.8261 17.6332 16.0353 17.2962C16.378 16.7471 16.7127 16.1951 17.0394 15.6357C17.2383 15.301 17.4292 14.956 17.6069 14.6081C17.8029 14.2263 17.9863 13.8418 18.1663 13.4526C18.4614 12.8118 18.7257 12.1607 18.9245 11.4838C19.0369 11.0889 19.1418 10.6888 19.2358 10.2888C19.2828 10.1008 19.3011 9.90419 19.3349 9.71103C19.3378 9.65888 19.3429 9.60385 19.3481 9.54654C19.3664 9.35281 19.3871 9.16195 19.3951 8.96593C19.4031 8.77794 19.4031 8.5865 19.3951 8.39564C19.3871 8.17613 19.3636 7.95661 19.3452 7.73651L19.3435 7.73709ZM14.4253 9.131C14.3989 9.34536 14.3364 9.5494 14.2528 9.74542C14.1301 10.0435 13.9627 10.3128 13.7455 10.5507L13.5518 10.7467C13.1254 11.1336 12.629 11.364 12.0616 11.4368C12.0169 11.4448 11.9699 11.4603 11.9257 11.4603C11.7378 11.4574 11.5492 11.4523 11.3583 11.4471C11.348 11.4471 11.3371 11.4368 11.3268 11.4316C11.1778 11.3978 11.0236 11.3743 10.8769 11.3296C10.733 11.2849 10.5869 11.2328 10.4533 11.1651C10.0452 10.9559 9.70305 10.6711 9.44112 10.2893C9.25313 10.0228 9.11672 9.73224 9.03304 9.41872C8.99406 9.28518 8.98088 9.14705 8.95738 9.00835C8.94936 8.95848 8.93388 8.90632 8.93388 8.85646C8.93675 8.69941 8.9442 8.54008 8.95222 8.38303C8.9654 8.30738 8.97572 8.23401 8.9912 8.15836C9.06972 7.75829 9.22906 7.39721 9.46978 7.06822C9.70248 6.74897 9.99021 6.49563 10.3301 6.30191C10.6127 6.14257 10.913 6.0245 11.2374 5.98266C11.266 5.97234 11.2947 5.95916 11.3262 5.9563C11.6294 5.92248 11.9326 5.91732 12.2335 5.98782C12.4215 6.01934 12.5998 6.08468 12.7746 6.15805C12.9867 6.24975 13.1878 6.35693 13.3707 6.50079C13.4257 6.54779 13.4807 6.59479 13.5352 6.6395C13.6057 6.70999 13.6762 6.78336 13.7444 6.85386C13.9564 7.07853 14.1209 7.33244 14.2413 7.62016C14.3405 7.85573 14.419 8.09875 14.4373 8.36011C14.4425 8.53549 14.4528 8.71031 14.4528 8.88569C14.4528 8.96937 14.4344 9.05019 14.4241 9.13157L14.4253 9.131Z" fill="#333333"/>
<path d="M14.4539 8.88494C14.4539 8.96862 14.4355 9.04944 14.4252 9.13083C14.3989 9.34519 14.3364 9.54923 14.2527 9.74525C14.13 10.0433 13.9627 10.3127 13.7455 10.5505L13.5517 10.7465C13.1253 11.1334 12.629 11.3638 12.0615 11.4366C12.0168 11.4447 11.9698 11.4601 11.9257 11.4601C11.7377 11.4573 11.5491 11.4521 11.3583 11.4469C11.3479 11.4469 11.3371 11.4366 11.3267 11.4315C11.1777 11.3977 11.0235 11.3742 10.8768 11.3294C10.733 11.2847 10.5868 11.2326 10.4533 11.165C10.0452 10.9558 9.703 10.6709 9.44106 10.2892C9.25307 10.0227 9.11666 9.73206 9.03298 9.41855C8.994 9.285 8.98082 9.14687 8.95732 9.00817C8.9493 8.95831 8.93382 8.90615 8.93382 8.85628C8.93669 8.69924 8.94414 8.5399 8.95216 8.38286C8.96535 8.3072 8.97566 8.23384 8.99114 8.15818C9.06966 7.75812 9.229 7.39703 9.46972 7.06804C9.70242 6.7488 9.99015 6.49546 10.33 6.30173C10.6126 6.1424 10.9129 6.02433 11.2373 5.98249C11.266 5.97217 11.2946 5.95899 11.3262 5.95612C11.6294 5.92231 11.9326 5.91715 12.2335 5.98765C12.4215 6.01917 12.5997 6.08451 12.7745 6.15787C12.9866 6.24958 13.1878 6.35676 13.3706 6.50062C13.4256 6.54762 13.4807 6.59462 13.5351 6.63932C13.6056 6.70982 13.6761 6.78318 13.7443 6.85368C13.9564 7.07836 14.1209 7.33227 14.2412 7.61999C14.3404 7.85556 14.4189 8.09857 14.4373 8.35993C14.4424 8.53532 14.4527 8.71013 14.4527 8.88552L14.4539 8.88494Z" fill="white"/>
<path d="M10.7839 21.9514C10.9525 22.1601 11.1267 22.3635 11.2981 22.5676C11.4104 22.6994 11.5256 22.8289 11.6368 22.9625C11.6752 23.0066 11.7062 23.0169 11.7474 22.9654C11.8139 22.8857 11.8861 22.8089 11.9543 22.7286C12.2352 22.3945 12.5218 22.0638 12.7951 21.725C13.1367 21.3026 13.472 20.8739 13.8045 20.4452C13.9741 20.2268 14.1386 20.005 14.3031 19.7832H9.08684C9.32756 20.1053 9.57058 20.4269 9.81876 20.7438C10.1363 21.1502 10.4601 21.5508 10.7839 21.9514Z" fill="#333333"/>
</svg>
