<svg width="24" height="24" viewBox="0 0 24 24" fill="none" xmlns="http://www.w3.org/2000/svg">
<rect width="24" height="24" />
<path fill-rule="evenodd" clip-rule="evenodd" d="M4.10521 10.2695C4.10249 10.2451 4.09978 10.2179 4.09706 10.1908L4.09163 10.1989C4.08309 10.1268 4.07367 10.0546 4.06425 9.98249C4.04069 9.80214 4.01713 9.62179 4.00743 9.44144C3.99538 9.16682 4.00044 8.89434 4.00553 8.6202C4.00617 8.58538 4.00682 8.55053 4.00743 8.51565C4.00743 8.41758 4.01915 8.31784 4.03076 8.21906C4.03394 8.19204 4.03711 8.16509 4.04002 8.13827C4.0536 8.00252 4.06718 7.86949 4.08348 7.73375C4.09434 7.68759 4.10249 7.63872 4.11064 7.58985C4.13118 7.49173 4.14981 7.39361 4.16813 7.29711C4.17161 7.27879 4.17507 7.26053 4.17854 7.24234L4.17855 7.24231C4.222 7.074 4.26546 6.90568 4.31162 6.74008C4.42298 6.3437 4.56421 5.96089 4.74619 5.59438C4.89557 5.30116 5.05038 5.01067 5.21877 4.73103C5.41976 4.39981 5.6479 4.08487 5.90593 3.79709C6.11234 3.5636 6.32691 3.33827 6.55234 3.12379C6.82122 2.86587 7.11184 2.63238 7.42418 2.42605C7.61185 2.30314 7.80467 2.18365 7.99854 2.06351C8.04876 2.03239 8.09906 2.00122 8.14935 1.96994C8.17102 1.95661 8.19474 1.94635 8.21862 1.93601C8.23365 1.92951 8.24874 1.92298 8.26342 1.91564L8.5649 1.76089C8.89082 1.60071 9.23304 1.4731 9.57797 1.36179C10.075 1.20161 10.5829 1.10116 11.0989 1.04143C11.1343 1.036 11.1668 1.03329 11.1994 1.03329C11.2378 1.03024 11.2762 1.02692 11.3146 1.0236C11.4472 1.01214 11.5794 1.00071 11.71 1.00071C11.9789 0.997991 12.2478 1.00342 12.5167 1.01157C12.6326 1.01519 12.7485 1.02605 12.8644 1.03691C12.9223 1.04234 12.9802 1.04777 13.0382 1.05229C13.1604 1.07129 13.2826 1.0903 13.4048 1.11202C13.5189 1.13102 13.633 1.15274 13.7471 1.17989C13.872 1.20704 13.9969 1.23419 14.1192 1.26948C14.3256 1.32921 14.532 1.39166 14.733 1.46496C14.8888 1.52159 15.0415 1.58575 15.1935 1.64958C15.2456 1.67144 15.2975 1.69326 15.3495 1.71473C15.3712 1.72288 15.3902 1.73374 15.4093 1.7446L15.4094 1.74466C15.5261 1.80437 15.6429 1.86408 15.7569 1.92107C15.8326 1.96596 15.9092 2.00941 15.9857 2.05283C16.1452 2.14335 16.3044 2.2337 16.4549 2.33645C16.6942 2.50093 16.9244 2.6837 17.1538 2.86587C17.1744 2.88217 17.1949 2.89846 17.2154 2.91474C17.2995 2.98196 17.3784 3.05817 17.4575 3.13453C17.4934 3.1692 17.5293 3.20391 17.5658 3.23781L17.7586 3.43057C17.8078 3.48668 17.8573 3.54265 17.9068 3.59863C18.0705 3.78375 18.2344 3.96912 18.3887 4.16089C18.4688 4.26003 18.5388 4.36698 18.6087 4.47387C18.648 4.53382 18.6872 4.59376 18.7282 4.65229C18.9211 4.92922 19.084 5.22515 19.228 5.53193C19.3034 5.69409 19.371 5.85887 19.4389 6.02444C19.4688 6.09727 19.4987 6.17026 19.5294 6.24325C19.5349 6.25773 19.5355 6.2722 19.5361 6.28668C19.5364 6.29392 19.5367 6.30116 19.5376 6.3084C19.5539 6.35999 19.5729 6.41157 19.5919 6.46316C19.6136 6.52017 19.6354 6.57718 19.6571 6.63148C19.7875 7.05501 19.8798 7.48397 19.9423 7.92108C19.9441 7.93737 19.9435 7.95366 19.9429 7.96994C19.9426 7.97809 19.9423 7.98623 19.9423 7.99438C19.947 8.0514 19.9521 8.10843 19.9572 8.16545C19.9725 8.33648 19.9878 8.50751 19.9939 8.67854C20.002 8.87673 20.002 9.07492 19.9939 9.2704C19.9885 9.40434 19.9758 9.53828 19.9631 9.67222C19.9568 9.73918 19.9504 9.80615 19.945 9.87311C19.9396 9.91112 19.9365 9.94913 19.9335 9.98713C19.932 10.0061 19.9305 10.0251 19.9287 10.0442C19.9184 10.1068 19.9094 10.17 19.9005 10.2334C19.8811 10.3703 19.8616 10.5078 19.8282 10.6414C19.7277 11.0568 19.6218 11.4722 19.5023 11.8822C19.2986 12.5853 19.0216 13.2614 18.7146 13.9265C18.5272 14.331 18.3371 14.7301 18.1334 15.1265C17.9487 15.4876 17.7505 15.8433 17.544 16.1935C17.2045 16.7718 16.8569 17.3446 16.5011 17.9148C16.2986 18.2412 16.0819 18.5558 15.8642 18.8719C15.8484 18.8949 15.8325 18.918 15.8167 18.941C15.7997 18.9649 15.7824 18.9888 15.765 19.0129C15.735 19.0544 15.7046 19.0962 15.6754 19.1392H8.31231C8.27564 19.0849 8.23762 19.0313 8.19959 18.9776C8.16157 18.924 8.12355 18.8704 8.08688 18.8161C7.97374 18.6511 7.8644 18.4823 7.75539 18.314C7.70478 18.2359 7.65424 18.1578 7.60343 18.0804C7.57396 18.0359 7.54433 17.9913 7.51467 17.9468C7.41586 17.7983 7.31656 17.6491 7.22048 17.4967C7.15188 17.3869 7.08612 17.2758 7.02012 17.1643C6.99466 17.1213 6.96915 17.0782 6.94344 17.0351C6.87477 16.9176 6.80511 16.8003 6.73539 16.683C6.60381 16.4616 6.47196 16.2397 6.34592 16.0143C6.23835 15.8228 6.13599 15.6281 6.03367 15.4336C5.97065 15.3137 5.90765 15.1939 5.84346 15.0749C5.78916 14.9691 5.73758 14.866 5.686 14.7628L5.68593 14.7627C5.66013 14.7125 5.63432 14.6616 5.60852 14.6107C5.58272 14.5598 5.55692 14.5089 5.53112 14.4586C5.45778 14.3039 5.38445 14.1491 5.31655 13.9917C5.28934 13.9288 5.26204 13.8661 5.23476 13.8033C5.10414 13.5029 4.97391 13.2035 4.85483 12.9003C4.73261 12.5935 4.62668 12.2785 4.52347 11.9663C4.33879 11.4125 4.20298 10.8451 4.10521 10.2695ZM9.14893 8.65906L9.14885 8.65954L9.14613 8.65682C9.14432 8.71112 9.1419 8.76542 9.13949 8.81972C9.13466 8.92832 9.12983 9.03692 9.12983 9.14551C9.12799 9.18239 9.13617 9.21927 9.14416 9.2553C9.14793 9.27232 9.15166 9.28915 9.15428 9.30569C9.16163 9.34899 9.168 9.39229 9.17435 9.43544C9.18911 9.53569 9.20374 9.63514 9.23033 9.73194C9.31995 10.055 9.46119 10.3564 9.65402 10.636C9.92834 11.0324 10.2814 11.3283 10.7078 11.5455C10.8464 11.6161 10.9985 11.6731 11.1478 11.7166C11.2509 11.7478 11.3564 11.7691 11.4628 11.7906C11.5134 11.8008 11.5642 11.8111 11.615 11.8224C11.6186 11.8242 11.6222 11.8267 11.6258 11.8291C11.6331 11.8339 11.6403 11.8387 11.6476 11.8387C11.8431 11.8469 12.0387 11.8523 12.2342 11.8523C12.2686 11.8523 12.3016 11.8456 12.3351 11.8388C12.3493 11.8359 12.3636 11.833 12.3782 11.8306C12.9676 11.7519 13.4836 11.5129 13.9236 11.1111L14.1273 10.9075C14.3527 10.6604 14.5266 10.3835 14.6542 10.074C14.7411 9.86768 14.8063 9.65864 14.8335 9.43601C14.8363 9.41825 14.8394 9.40036 14.8426 9.38241C14.8542 9.3153 14.8661 9.24721 14.8661 9.18081C14.8661 9.03423 14.859 8.88589 14.852 8.73862C14.8503 8.70314 14.8486 8.66771 14.847 8.63239C14.828 8.36361 14.7465 8.10841 14.6433 7.86406C14.5211 7.56813 14.3473 7.30207 14.1273 7.06859L14.1273 7.06855C14.0567 6.99526 13.9861 6.92197 13.9127 6.84868C13.853 6.80252 13.7959 6.75365 13.7389 6.70479C13.5488 6.55546 13.3397 6.44144 13.1197 6.34913C12.9404 6.27311 12.7557 6.20524 12.5602 6.17266C12.2451 6.09935 11.93 6.10207 11.615 6.14008C11.5946 6.14348 11.5753 6.15006 11.5563 6.15651C11.545 6.16037 11.5338 6.16418 11.5226 6.16723C11.1859 6.21067 10.8735 6.33284 10.5802 6.49845C10.2271 6.69936 9.92834 6.9627 9.68662 7.29393C9.43946 7.63601 9.27107 8.01067 9.18959 8.42605C9.17603 8.50192 9.16248 8.58049 9.14893 8.65906ZM11.4929 23.2773C11.3447 23.1026 11.1958 22.9272 11.0525 22.7482V22.7509C10.7157 22.3355 10.3816 21.9174 10.0503 21.4966C9.79227 21.1681 9.53968 20.8341 9.28981 20.5002H14.7083C14.5371 20.731 14.366 20.9617 14.1895 21.1871C13.8446 21.6296 13.4969 22.0749 13.1411 22.5147C12.9583 22.741 12.7698 22.9628 12.5815 23.1845C12.4762 23.3085 12.3708 23.4325 12.2666 23.5572C12.24 23.5879 12.2126 23.6182 12.1852 23.6485C12.1398 23.6987 12.0943 23.7491 12.052 23.8016C12.0113 23.8559 11.9787 23.845 11.9379 23.7988C11.8534 23.6962 11.7658 23.5951 11.6786 23.4943C11.6482 23.4591 11.6178 23.424 11.5876 23.3889C11.5561 23.3517 11.5245 23.3145 11.4929 23.2773Z" fill="#333333"/>
</svg>