<svg width="185" height="48" viewBox="0 0 185 48" fill="none" xmlns="http://www.w3.org/2000/svg">
<path fill-rule="evenodd" clip-rule="evenodd" d="M0.208572 20.0845C0.19545 20.0317 0.19545 19.9268 0.19545 19.9268L0.182327 19.9004C0.162979 19.7104 0.138199 19.5205 0.113358 19.3301L0.0771637 19.0474C0.0632477 18.9351 0.0501862 18.8218 0.0390778 18.7085C0.027298 18.5879 0.0177155 18.4668 0.011673 18.3447C-0.00584412 17.9233 1.52588e-05 17.5015 0.0058136 17.0796C0.00874329 16.8687 0.011673 16.6577 0.011673 16.4468C0.011673 16.2529 0.0330353 16.0659 0.0547638 15.876C0.0625763 15.8076 0.0703888 15.7388 0.0772858 15.6694C0.103592 15.3926 0.14296 15.1157 0.169205 14.8389C0.182327 14.7334 0.208572 14.6411 0.221695 14.5361C0.247513 14.4194 0.270096 14.3027 0.292679 14.186C0.316055 14.0654 0.339371 13.9448 0.366104 13.8242L0.641739 12.7959C0.878006 11.979 1.15364 11.188 1.53432 10.437C1.8362 9.83057 2.16432 9.2373 2.50563 8.65771C2.91255 7.97217 3.38509 7.32666 3.91011 6.7334C4.01558 6.61426 4.12276 6.49609 4.2314 6.37842C4.30183 6.30225 4.37288 6.22656 4.44447 6.15088C4.70198 5.87891 4.96663 5.61182 5.23579 5.34961C5.78712 4.82227 6.37776 4.33447 7.02095 3.9126C7.10182 3.85986 7.18306 3.80762 7.2646 3.75586L7.49202 3.61182C7.57948 3.55615 7.66725 3.50146 7.75514 3.44678L7.92592 3.33984C8.11818 3.21973 8.31117 3.09961 8.50417 2.97705C8.54353 2.95752 8.58284 2.94092 8.62215 2.9248L8.67744 2.90137C8.69844 2.89209 8.71944 2.88232 8.74043 2.87158L8.90865 2.78662L9.04939 2.71338L9.1653 2.65332L9.35738 2.55518C10.0268 2.22559 10.7225 1.96191 11.4313 1.73828C12.442 1.40869 13.479 1.19775 14.5421 1.0791C14.6209 1.06592 14.6865 1.06592 14.7522 1.06592L15.0235 1.04395C15.2868 1.02197 15.5481 1 15.8023 1C16.3535 1 16.9048 1.01318 17.4561 1.02637C17.5584 1.02637 17.6607 1.03076 17.763 1.0376C17.897 1.04688 18.031 1.06006 18.1649 1.07324C18.283 1.08496 18.4012 1.09668 18.5193 1.10547C18.7687 1.14502 19.0181 1.17139 19.2675 1.22412C19.3856 1.25049 19.5005 1.27344 19.6153 1.29688C19.7301 1.31982 19.845 1.34277 19.9632 1.36914L20.0285 1.38232C20.2581 1.43115 20.4968 1.48145 20.7245 1.55371L20.9556 1.62305C21.1198 1.67236 21.2821 1.72119 21.4425 1.77246C21.5354 1.80225 21.6276 1.83301 21.7192 1.86475C21.8083 1.89551 21.8967 1.92773 21.9846 1.96191C22.2648 2.06738 22.545 2.18457 22.8251 2.30176C22.965 2.36035 23.1048 2.41895 23.2446 2.47607C23.2547 2.48291 23.2648 2.48877 23.2749 2.49414L23.3037 2.50879C23.3234 2.51855 23.3431 2.52881 23.3628 2.54199C23.4832 2.60938 23.6037 2.67285 23.7241 2.73486L23.8779 2.81396L24.0716 2.91113C24.2318 3.00684 24.3919 3.09814 24.5511 3.18896L24.5568 3.19189C24.8784 3.37549 25.1962 3.55713 25.5023 3.76758C26.0405 4.13672 26.5524 4.54541 27.0643 4.9541C27.2507 5.104 27.4173 5.26709 27.5827 5.4292L27.5939 5.43945C27.6577 5.50195 27.7215 5.56445 27.7863 5.62598L28.18 6.02148C28.3033 6.16406 28.4276 6.30566 28.5518 6.44678C28.864 6.80225 29.1752 7.15625 29.4664 7.52393C29.6123 7.70898 29.7448 7.91211 29.8769 8.11475L29.8949 8.14258L29.9606 8.24316C29.9945 8.29492 30.0285 8.34619 30.0629 8.39697C30.0956 8.44482 30.1286 8.49219 30.1621 8.53906C30.3709 8.83984 30.5612 9.15137 30.739 9.47168C30.8965 9.75586 31.0441 10.0474 31.1859 10.3447C31.2373 10.4541 31.2866 10.5645 31.3345 10.6758C31.4075 10.8457 31.4776 11.0176 31.5475 11.1899L31.5709 11.2471C31.6468 11.4346 31.7229 11.6221 31.8028 11.8076C31.8159 11.8472 31.8159 11.8999 31.8159 11.9395L31.9341 12.2559C31.9579 12.3276 31.9817 12.3945 32.0084 12.4624L32.0346 12.5269L32.0653 12.5986C32.3278 13.4683 32.5116 14.3516 32.6429 15.2476V15.3926C32.6823 15.8672 32.7348 16.3418 32.7479 16.8027C32.761 17.1982 32.761 17.6069 32.7479 18.0156C32.7348 18.4238 32.6954 18.8457 32.656 19.2544C32.6494 19.3145 32.6427 19.3745 32.6377 19.4346C32.6329 19.4932 32.6297 19.5518 32.6297 19.6104L32.5983 19.8105L32.5526 20.1094C32.5357 20.2183 32.5181 20.3271 32.499 20.436C32.4756 20.5693 32.4498 20.7026 32.4198 20.8359C32.2097 21.6929 31.9866 22.5493 31.7503 23.3931C31.3303 24.8428 30.7659 26.2266 30.1358 27.5972C29.7551 28.4277 29.3614 29.2446 28.9414 30.062C28.5607 30.8135 28.1538 31.5381 27.7338 32.2632C27.0381 33.4624 26.3293 34.6353 25.5942 35.8086C25.4063 36.1079 25.2114 36.4053 25.0134 36.7017L24.7943 37.0278L24.5521 37.3843L24.5329 37.4121L24.4884 37.478L24.1897 37.9175C24.0979 38.0493 23.9929 38.1938 23.901 38.3257H8.81923C8.68752 38.1333 8.54488 37.9302 8.40126 37.7256L8.35982 37.667C8.03163 37.166 7.70351 36.6519 7.37538 36.1514C7.11281 35.7559 6.83717 35.3604 6.58778 34.9517C6.40401 34.6353 6.20717 34.3193 6.02339 34.0029C5.88728 33.769 5.74971 33.5371 5.61214 33.3047C5.33839 32.8428 5.06471 32.3809 4.80269 31.9072C4.43513 31.2612 4.10701 30.6157 3.7657 29.9697C3.71651 29.8765 3.66957 29.7852 3.62398 29.6953L3.52516 29.4995L3.43758 29.3237C3.33253 29.126 3.22755 28.9155 3.12251 28.7046L3.11812 28.6958C2.97523 28.3823 2.83229 28.0684 2.68941 27.7422C2.36122 27.0044 2.04622 26.2529 1.74434 25.5015C1.61494 25.1733 1.49263 24.8418 1.37556 24.5083L1.29549 24.2778L1.17891 23.9336L1.06178 23.5776C0.681107 22.4307 0.405472 21.271 0.208572 20.0845ZM10.6174 16.2891C10.5912 16.46 10.565 16.6182 10.5387 16.7764V16.8027L10.5314 16.9639L10.523 17.1299C10.5112 17.3555 10.4993 17.583 10.4993 17.8047C10.4993 17.8691 10.5139 17.938 10.5283 18.0063C10.5376 18.0498 10.5467 18.0933 10.5518 18.1343C10.5694 18.231 10.5839 18.3276 10.5985 18.4243L10.6138 18.5254C10.6246 18.5952 10.636 18.665 10.649 18.7349C10.6657 18.8242 10.685 18.9141 10.7094 19.0039C10.8931 19.6631 11.1819 20.2822 11.5757 20.8623C12.127 21.6797 12.862 22.2856 13.7283 22.7339C13.9321 22.8364 14.1489 22.9253 14.3651 23.0015C14.4552 23.0332 14.5452 23.0625 14.634 23.0898C14.8291 23.1553 15.0291 23.1953 15.228 23.2349L15.3795 23.2661L15.4588 23.2832C15.5035 23.2925 15.548 23.3027 15.5922 23.314L15.5987 23.3179L15.6041 23.3213L15.6188 23.3335C15.6309 23.3438 15.642 23.3535 15.6579 23.3535C16.0648 23.3799 16.4716 23.3799 16.8654 23.3799C16.9574 23.3799 17.0623 23.3403 17.1542 23.3271C18.3618 23.1689 19.4119 22.6812 20.3176 21.8506L20.7376 21.4292C21.197 20.9282 21.5514 20.3481 21.8139 19.7158C21.8861 19.5503 21.9501 19.3828 22.0044 19.2124C22.0426 19.0928 22.076 18.9717 22.1041 18.8491C22.1237 18.7632 22.1408 18.6763 22.155 18.5884C22.1653 18.5254 22.1741 18.4619 22.1815 18.3975L22.2008 18.2783L22.2097 18.2256C22.2293 18.1064 22.2471 17.9858 22.2471 17.8706C22.2471 17.4883 22.2208 17.1191 22.2077 16.7368C22.1684 16.1836 21.9977 15.6562 21.7877 15.1553C21.5252 14.5493 21.1708 13.9956 20.7245 13.521C20.5801 13.3628 20.4226 13.2178 20.2782 13.0596C20.16 12.9541 20.0419 12.8486 19.9238 12.7563C19.53 12.4404 19.0969 12.2163 18.6506 12.0186C18.4909 11.9497 18.3286 11.8833 18.164 11.8247C18.0549 11.7861 17.9448 11.751 17.8337 11.7207C17.7891 11.709 17.7444 11.6978 17.6995 11.6875L17.6116 11.6685L17.5401 11.6553L17.5086 11.6494C16.8654 11.5044 16.2222 11.5044 15.5791 11.5835C15.5404 11.5835 15.5063 11.5967 15.4715 11.6104L15.4656 11.6133C15.4431 11.6226 15.4202 11.6313 15.3953 11.6362C14.6997 11.7285 14.0696 11.979 13.4658 12.3218C12.7439 12.7305 12.1401 13.2705 11.6413 13.9561C11.1294 14.6675 10.7881 15.4321 10.6174 16.2891ZM14.9561 46.376L14.7946 46.1821C14.6784 46.0425 14.5632 45.9014 14.4507 45.7593V45.7725C13.7681 44.916 13.0856 44.0591 12.403 43.1895C11.8735 42.5146 11.3693 41.8398 10.8656 41.1655L10.841 41.1333H21.9456C21.5912 41.6079 21.2368 42.082 20.8824 42.5435C20.1969 43.4233 19.4989 44.3027 18.8006 45.1826L18.7971 45.187L18.7937 45.1914L18.7902 45.1958L18.7298 45.272C18.1522 45.9966 17.5484 46.7085 16.9446 47.4199L16.8898 47.4839L16.8237 47.5581L16.7215 47.6704C16.6752 47.7212 16.6289 47.7715 16.5833 47.8228C16.5546 47.855 16.5263 47.8877 16.4984 47.9209C16.4411 47.9946 16.3941 48.0122 16.3477 47.9927C16.3197 47.981 16.2918 47.9556 16.2621 47.9209C16.0258 47.6309 15.7764 47.354 15.5402 47.0776C15.3939 46.8979 15.2432 46.7183 15.0918 46.5381L14.9561 46.376ZM48.9977 38.3389H41.0308V41.1328H173.298L173.196 41.4102C172.474 43.4263 171.844 44.7183 171.306 45.2847C170.952 45.667 170.61 45.8647 170.282 45.8647C170.085 45.8647 169.928 45.7856 169.823 45.6406C169.718 45.4956 169.652 45.166 169.639 44.6523C169.626 43.7427 169.416 43.084 169.009 42.6489C168.602 42.2139 168.09 42.0029 167.395 42.0029C166.699 42.0029 166.108 42.2534 165.636 42.7676C165.163 43.2817 164.927 43.9272 164.927 44.7051C164.927 45.6143 165.268 46.3789 165.964 47.0244C166.646 47.6704 167.552 47.9868 168.668 47.9868C170.059 47.9868 171.214 47.4199 172.146 46.2866C172.717 45.5874 173.555 43.8726 174.653 41.1328H184.025V38.3389H175.736L180.534 25.8311C181.453 23.4453 182.096 22.0483 182.489 21.6396C182.883 21.2314 183.382 20.9941 183.999 20.9282V20.1768H177.699V20.9282C178.539 20.9546 179.116 21.126 179.444 21.416C179.772 21.7056 179.943 22.1011 179.943 22.6021C179.943 23.3931 179.549 24.8164 178.762 26.8462L176.57 32.5659L173.354 25.1724C172.671 23.6562 172.343 22.6548 172.343 22.1406C172.343 21.811 172.488 21.5347 172.75 21.3105C173.026 21.0864 173.485 20.9546 174.141 20.9282V20.1768H164.139V20.9282C164.756 21.126 165.281 21.4556 165.714 21.9429C166.148 22.4307 166.83 23.7354 167.736 25.8442L173.161 38.3389H157.065C156.425 38.2915 155.958 38.1904 155.673 38.0356C155.358 37.8647 155.122 37.6011 154.964 37.2319C154.872 37.021 154.82 36.52 154.82 35.7559L154.794 34.6221V30.2861C154.794 28.7046 155.004 27.2676 155.437 25.9629C155.712 25.1064 156.133 24.4604 156.684 23.999C157.025 23.6958 157.393 23.5508 157.786 23.5508C157.874 23.5508 157.958 23.561 158.036 23.582C158.07 23.5908 158.103 23.6016 158.135 23.6143C158.174 23.6299 158.211 23.6484 158.246 23.6694C158.351 23.7222 158.653 23.9727 159.178 24.4341C159.703 24.8955 160.32 25.1196 161.029 25.1196C161.645 25.1196 162.17 24.856 162.604 24.3682C163.037 23.8804 163.26 23.1689 163.26 22.2725C163.26 21.4292 163.037 20.77 162.59 20.3086C162.144 19.8472 161.54 19.6104 160.792 19.6104C159.926 19.6104 159.02 19.9263 158.075 20.5723C157.13 21.2051 156.041 22.5098 154.794 24.4604V20.1899H147.115V20.9414C147.758 21.0205 148.218 21.1392 148.467 21.3105C148.716 21.4819 148.913 21.7583 149.044 22.1406C149.149 22.4307 149.202 23.1162 149.202 24.1968V34.6353C149.202 36.2827 149.058 37.2979 148.769 37.6802C148.497 38.0396 147.992 38.2593 147.255 38.3389H143.333C143.902 37.8921 144.453 37.2681 144.989 36.4673L144.385 35.98C144.03 36.4805 143.676 36.731 143.322 36.731C143.151 36.731 142.993 36.6914 142.862 36.5728C142.731 36.4541 142.626 36.2959 142.56 36.0723C142.495 35.8613 142.455 35.3076 142.455 34.4507V27.1226C142.455 25.0801 142.35 23.7881 142.166 23.2217C141.865 22.3252 141.182 21.5083 140.145 20.7437C139.095 19.979 137.691 19.5972 135.905 19.5972C134.435 19.5972 133.005 19.834 131.639 20.3086C130.261 20.7832 129.198 21.4556 128.437 22.3384C127.675 23.2217 127.295 24.144 127.295 25.1196C127.295 25.8047 127.57 26.3979 128.148 26.9121C128.725 27.4258 129.434 27.6763 130.274 27.6763C131.062 27.6763 131.705 27.439 132.191 26.978C132.676 26.5166 132.926 25.9497 132.926 25.2905C132.926 24.7505 132.676 24.1968 132.164 23.6167C131.784 23.1953 131.6 22.8394 131.6 22.5625C131.6 22.2461 131.771 21.9561 132.125 21.7188C132.69 21.3369 133.411 21.1392 134.278 21.1392C134.816 21.1392 135.288 21.271 135.722 21.5479C136.155 21.8242 136.444 22.1538 136.601 22.5229C136.759 22.9053 136.837 23.8013 136.837 25.2251V27.1226C132.69 29.0337 129.999 30.5762 128.765 31.7227C127.531 32.8691 126.914 34.1743 126.914 35.6108C126.914 36.6782 127.268 37.5615 127.977 38.2729L128.046 38.3389H125.536V38.3257C124.84 38.2729 124.263 38.0225 123.803 37.5615C123.475 37.2451 122.412 35.7559 120.627 33.1196L116.203 26.6221L118.251 24.6055C120.01 22.8789 121.191 21.8506 121.795 21.5083C122.399 21.1655 123.108 20.9678 123.908 20.9282V20.1768H115.481V20.9282C116.348 21.0337 116.912 21.2183 117.214 21.4556C117.516 21.6924 117.66 21.9956 117.66 22.3647C117.66 22.7339 117.555 23.103 117.332 23.498C117.109 23.8936 116.545 24.5264 115.652 25.396L111.281 29.6929V11.6758H103.615V12.4272C104.442 12.5327 104.994 12.7563 105.256 13.1123C105.519 13.4551 105.65 14.3516 105.65 15.7749V34.9517C105.65 36.4014 105.532 37.2715 105.309 37.5615C104.967 37.9829 104.403 38.2466 103.615 38.3257V38.3389H101.896C100.99 38.2861 100.386 38.0752 100.085 37.7065C99.7827 37.3374 99.6252 36.4805 99.6252 35.1494V11.6758H91.7496V12.4272C92.629 12.48 93.2197 12.6904 93.5347 13.0596C93.8366 13.4287 93.9941 14.2725 93.9941 15.5903V35.1494C93.9941 36.4805 93.8497 37.311 93.5872 37.6143C93.1803 38.0752 92.5634 38.3125 91.7364 38.3389H88.6107C89.1793 37.8921 89.7312 37.2681 90.2663 36.4673L89.6626 35.98C89.3082 36.4805 88.9538 36.731 88.5993 36.731C88.4287 36.731 88.2712 36.6914 88.1399 36.5728C88.0087 36.4541 87.9037 36.2959 87.838 36.0723C87.7724 35.8613 87.733 35.3076 87.733 34.4507V27.1226C87.733 25.0801 87.6412 23.7881 87.4574 23.2217C87.1555 22.3252 86.4729 21.5083 85.436 20.7437C84.3859 19.979 82.9814 19.5972 81.1963 19.5972C79.7262 19.5972 78.2954 19.834 76.9303 20.3086C75.5521 20.7832 74.4889 21.4556 73.7276 22.3384C72.9663 23.2217 72.5856 24.144 72.5856 25.1196C72.5856 25.8047 72.8613 26.3979 73.4388 26.9121C74.0164 27.4258 74.7252 27.6763 75.5652 27.6763C76.3528 27.6763 76.996 27.439 77.4816 26.978C77.9673 26.5166 78.2167 25.9497 78.2167 25.2905C78.2167 24.7505 77.9673 24.1968 77.4554 23.6167C77.0747 23.1953 76.891 22.8394 76.891 22.5625C76.891 22.2461 77.0616 21.9561 77.416 21.7188C77.9804 21.3369 78.7023 21.1392 79.5686 21.1392C80.1068 21.1392 80.5794 21.271 81.0125 21.5479C81.4457 21.8242 81.7345 22.1538 81.892 22.5229C82.0495 22.9053 82.1282 23.8013 82.1282 25.2251V27.1226C77.9804 29.0337 75.2896 30.5762 74.0557 31.7227C72.8219 32.8691 72.205 34.1743 72.205 35.6108C72.205 36.6782 72.5594 37.5615 73.2682 38.2729L73.3367 38.3389H62.2981L67.1252 24.6055C67.7028 22.9316 68.1622 21.9165 68.5297 21.561C68.8972 21.2051 69.3829 20.981 69.9998 20.9019V20.1504H64.4213V20.9019C65.1563 20.9546 65.6551 21.1128 65.9045 21.3501C66.1539 21.5874 66.2852 21.9692 66.2852 22.4966C66.2852 22.8394 66.1145 23.498 65.7601 24.4736L63.345 31.2612L60.6935 23.8936C60.3129 22.8789 60.116 22.2329 60.116 21.9297C60.116 21.7261 60.1575 21.5522 60.2484 21.4082C60.2928 21.3379 60.349 21.2744 60.4179 21.2183C60.6279 21.0469 61.1004 20.9414 61.8486 20.9019V20.1504H52.2141V20.9019C52.8573 21.0073 53.3167 21.2051 53.6186 21.4819C53.9205 21.7583 54.2618 22.3911 54.6687 23.4062L54.8656 23.8936L52.2141 31.2612L49.4577 23.8936C49.0245 22.7471 48.8145 22.0615 48.8145 21.8374C48.8145 21.6006 48.9458 21.3765 49.182 21.1919C49.4183 21.0073 49.8646 20.915 50.5077 20.915V20.1636H41.0177V20.915C41.7002 21.1128 42.199 21.416 42.5403 21.8506C43.0653 22.4834 43.7085 23.854 44.4567 25.9365L48.9977 38.3389ZM134.004 38.3389H137.714C137.244 37.8438 136.951 37.1494 136.837 36.2563V36.2827C135.849 37.1558 134.905 37.8413 134.004 38.3389ZM115.823 38.3257V38.3389H113.329V38.3257C112.489 38.2334 111.937 38.0093 111.675 37.6538C111.399 37.2979 111.268 36.3882 111.268 34.9517V31.5645L112.476 30.3784L116.203 35.8481C116.768 36.6782 117.043 37.2583 117.043 37.5615C117.043 37.7461 116.951 37.9302 116.755 38.0884C116.558 38.2466 116.256 38.3257 115.823 38.3257ZM82.1196 36.2905C82.2366 37.1675 82.5274 37.8501 82.9921 38.3389H79.295C80.1931 37.8428 81.1346 37.1602 82.1196 36.2905ZM50.9922 38.3389H60.2399L55.5744 25.7783L50.9922 38.3389ZM82.1282 34.7935V28.4805C80.5006 29.4424 79.293 30.4575 78.5054 31.5513C77.9804 32.2764 77.7179 33.0142 77.7179 33.7524C77.7179 34.3716 77.941 34.9121 78.3873 35.3867C78.7286 35.7559 79.188 35.9272 79.7918 35.9272C80.4612 35.9272 81.2357 35.5449 82.1282 34.7935ZM136.837 28.4805V34.7935C135.945 35.5449 135.17 35.9272 134.501 35.9272C133.897 35.9272 133.438 35.7559 133.096 35.3867C132.65 34.9121 132.427 34.3716 132.427 33.7524C132.427 33.0142 132.69 32.2764 133.215 31.5513C134.002 30.4575 135.21 29.4424 136.837 28.4805Z" fill="#333333"/>
</svg>
